<?xml version="1.0" standalone="no"?>
<!DOCTYPE svg PUBLIC "-//W3C//DTD SVG 20010904//EN"
 "http://www.w3.org/TR/2001/REC-SVG-20010904/DTD/svg10.dtd">
<svg version="1.0" xmlns="http://www.w3.org/2000/svg"
fill="none" stroke="currentColor" stroke-linecap="round" stroke-linejoin="round" stroke-width="2" class="w-10 h-10 text-white p-2 bg-indigo-500 rounded-full" viewBox="0 0 24 24">

<g transform="translate(0.000000,720.000000) scale(0.100000,-0.100000)"
fill="#000000" stroke="none">
<path d="M3607 6524 c3 -8 9 -14 14 -14 11 0 59 -83 59 -103 0 -30 -35 -18
-103 36 -29 22 -41 27 -50 18 -14 -14 -94 -15 -102 -1 -8 12 -75 13 -75 1 0
-4 -26 -11 -58 -14 -71 -8 -92 -15 -92 -32 0 -16 -32 -25 -93 -25 -48 0 -52
-1 -124 -38 -23 -12 -48 -22 -56 -22 -8 0 -39 -17 -68 -37 -58 -39 -61 -41
-123 -97 -49 -43 -186 -157 -251 -206 -25 -19 -71 -44 -103 -55 -73 -26 -103
-47 -137 -94 -14 -22 -53 -60 -85 -86 -64 -52 -80 -82 -80 -156 0 -37 -4 -49
-18 -53 -10 -4 -34 -22 -52 -41 -26 -26 -35 -45 -36 -73 -2 -35 -70 -235 -95
-276 -7 -12 -13 -81 -15 -170 -2 -83 -8 -167 -14 -186 -12 -42 -12 -172 1
-255 5 -33 13 -89 18 -125 5 -36 19 -90 31 -120 26 -63 45 -133 67 -240 8 -41
21 -85 29 -97 8 -12 14 -28 14 -35 0 -13 8 -29 54 -111 32 -56 51 -147 31
-147 -7 0 -26 7 -41 15 -45 23 -115 2 -152 -46 -10 -13 -24 -44 -31 -69 -19
-65 -33 -286 -22 -328 6 -21 6 -43 0 -59 -6 -17 -6 -30 1 -38 5 -6 6 -16 2
-20 -4 -5 1 -5 11 -2 10 4 16 3 13 -2 -11 -17 13 -69 65 -142 30 -41 56 -76
59 -79 14 -14 50 -70 50 -79 0 -5 7 -11 15 -15 8 -3 15 -11 15 -18 0 -14 19
-28 80 -61 51 -27 127 -25 183 6 69 39 109 42 140 11 14 -14 23 -32 20 -40 -3
-8 4 -17 20 -23 30 -12 34 -22 47 -125 5 -43 16 -86 22 -95 7 -9 18 -21 23
-28 6 -6 28 -35 50 -63 22 -28 64 -76 93 -107 28 -30 52 -58 52 -61 0 -3 6
-13 14 -21 28 -33 185 -359 209 -436 29 -91 45 -129 87 -200 16 -27 29 -58 29
-67 1 -10 19 -53 41 -95 22 -43 51 -103 66 -133 14 -30 33 -68 43 -85 9 -16
25 -55 36 -86 16 -50 17 -62 5 -103 -8 -29 -21 -51 -34 -58 -12 -5 -46 -29
-76 -53 -30 -23 -65 -45 -76 -49 -12 -4 -46 -30 -76 -59 -30 -28 -74 -63 -96
-77 -23 -13 -42 -29 -42 -35 0 -5 -37 -47 -83 -92 -45 -45 -98 -97 -117 -116
-45 -45 -130 -143 -130 -151 0 -10 -47 -75 -76 -104 -38 -37 -144 -167 -144
-176 0 -3 19 -6 42 -6 43 0 116 35 140 68 7 10 28 28 46 41 l32 22 0 -21 c0
-20 -16 -59 -29 -70 -3 -3 -12 -13 -20 -22 -12 -17 -9 -18 45 -18 l59 0 2 90
c1 60 7 99 17 117 9 16 25 49 36 76 18 45 43 67 57 53 4 -4 -1 -20 -10 -35 -9
-16 -17 -39 -17 -50 0 -12 -9 -38 -20 -58 -11 -21 -20 -46 -20 -56 0 -11 9
-21 20 -24 22 -6 25 -28 11 -67 -7 -17 -6 -27 3 -35 18 -15 326 -13 326 3 1
95 64 311 104 355 9 10 16 23 16 30 0 19 189 203 203 198 19 -6 7 -177 -13
-177 -5 0 -16 -21 -26 -47 -9 -27 -30 -77 -47 -112 -25 -53 -31 -82 -36 -163
l-6 -98 30 0 c29 0 32 4 52 68 12 37 38 112 59 167 l38 100 0 180 c0 143 -5
205 -22 300 -31 167 -52 227 -142 406 -87 171 -174 366 -226 504 -19 50 -41
104 -49 120 -8 17 -31 66 -52 110 -20 44 -47 102 -60 129 l-23 48 23 -16 c12
-8 48 -29 79 -45 32 -17 75 -41 95 -54 55 -34 215 -93 308 -114 110 -25 380
-25 480 -1 138 34 286 97 465 199 165 93 205 125 280 219 24 30 40 46 35 35
-4 -11 -10 -75 -13 -143 -5 -126 7 -220 33 -278 8 -18 21 -55 28 -83 14 -53
32 -66 32 -21 -1 14 -4 54 -8 90 l-8 65 34 -66 c35 -71 86 -143 142 -204 19
-21 37 -47 41 -57 3 -10 19 -25 35 -33 26 -14 29 -21 29 -64 0 -85 -19 -153
-71 -261 -62 -126 -138 -246 -282 -447 -29 -39 -68 -93 -87 -120 -126 -176
-608 -683 -669 -704 -46 -16 -37 -29 20 -29 64 0 114 34 199 135 33 39 86 96
117 125 51 47 93 92 192 205 14 17 44 53 66 80 22 28 42 52 45 55 15 15 108
129 126 156 108 154 254 387 273 435 5 13 25 50 45 83 49 81 67 142 75 249 6
90 7 91 21 62 14 -27 19 -30 60 -27 36 3 60 -4 118 -34 69 -34 73 -38 67 -63
-3 -14 -17 -42 -29 -61 -13 -20 -35 -58 -49 -85 -14 -28 -48 -76 -75 -108 -61
-72 -228 -304 -267 -372 -37 -65 -131 -203 -160 -235 -12 -14 -27 -35 -33 -46
-15 -29 -169 -222 -256 -319 -84 -95 -188 -187 -221 -196 -13 -4 -34 -14 -47
-23 -21 -15 -19 -16 53 -16 41 0 80 5 85 10 8 8 19 8 38 0 31 -11 143 -14 132
-3 -4 5 -39 15 -78 23 l-71 16 44 42 c47 44 69 51 89 27 18 -21 57 -19 77 5
25 29 35 24 27 -14 -5 -29 -2 -39 21 -62 l28 -28 18 22 c23 29 26 28 34 -8 6
-29 9 -30 61 -30 66 0 65 6 -21 77 -91 74 -116 90 -170 105 -27 8 -50 19 -52
24 -3 10 70 94 81 94 3 0 6 -8 6 -18 0 -20 50 -62 74 -62 9 0 23 16 31 36 18
45 9 59 -46 74 -22 6 -39 15 -39 20 0 12 49 69 69 80 13 6 25 2 45 -17 l27
-25 25 23 c32 30 30 48 -6 62 -43 16 -43 30 -5 84 19 26 50 71 70 100 19 29
44 62 56 74 11 11 27 35 34 53 8 18 43 73 79 122 36 49 80 109 98 134 57 78
93 120 104 120 6 0 16 -11 22 -25 16 -34 69 -35 100 -2 32 34 27 46 -28 69
-52 21 -61 37 -35 58 13 11 20 11 40 0 48 -25 80 13 51 61 -13 22 -14 33 -6
49 15 27 57 53 75 46 24 -9 18 -75 -10 -128 -14 -26 -25 -53 -25 -60 1 -7 24
-38 53 -69 44 -48 55 -55 75 -48 28 11 30 49 2 56 -11 3 -20 12 -20 21 0 9
-12 33 -26 53 -28 41 -25 66 5 47 15 -9 22 -8 35 4 23 24 53 11 67 -29 6 -19
24 -48 40 -64 21 -22 29 -39 29 -65 0 -27 7 -42 30 -62 17 -15 30 -34 30 -44
0 -30 29 -50 64 -43 l31 6 -27 -21 c-33 -25 -34 -34 -10 -80 18 -35 40 -100
65 -195 9 -35 18 -49 28 -46 8 2 29 6 47 9 29 4 32 7 32 41 0 55 -11 64 -59
56 -23 -4 -41 -3 -41 3 0 13 47 32 65 26 27 -11 17 35 -14 67 -24 24 -35 28
-63 23 l-33 -6 33 22 c17 12 32 26 32 31 0 20 16 6 39 -34 13 -23 32 -47 41
-54 9 -7 35 -40 58 -75 38 -60 40 -67 41 -145 1 -45 5 -92 10 -105 4 -13 7
-39 5 -58 -3 -47 10 -60 63 -60 44 0 44 0 41 31 -3 33 -15 44 -60 54 -36 7
-26 35 12 35 52 0 49 42 -6 78 -25 16 -34 29 -34 49 0 27 1 26 50 -22 28 -28
61 -69 73 -93 19 -39 88 -113 114 -123 6 -2 19 -19 30 -36 12 -20 41 -44 75
-61 l56 -28 -38 57 c-22 31 -69 84 -107 118 -37 35 -88 89 -113 121 -172 223
-200 260 -200 270 0 7 9 9 23 5 18 -5 17 -3 -5 10 -33 19 -34 23 -8 33 20 7
20 7 0 20 -16 10 -18 9 -14 -3 4 -9 0 -15 -10 -15 -19 0 -19 4 -7 48 6 20 6
32 0 32 -5 0 -9 -6 -9 -14 0 -8 -4 -17 -9 -21 -5 -3 -9 9 -8 26 1 18 -3 34
-11 36 -8 3 -10 -1 -5 -13 4 -12 3 -15 -5 -10 -7 4 -12 13 -12 21 0 7 -6 16
-12 19 -7 3 -1 3 15 0 16 -4 27 -2 27 5 0 6 -9 11 -20 11 -11 0 -20 5 -20 11
0 5 -6 7 -12 3 -10 -6 -10 -4 0 7 15 16 16 33 1 24 -6 -4 -19 1 -29 11 -10 11
-50 50 -89 88 -100 97 -91 110 19 26 19 -14 67 -44 105 -65 74 -41 204 -131
297 -207 32 -26 83 -65 115 -86 131 -90 286 -251 351 -364 15 -26 61 -98 103
-160 42 -62 100 -159 130 -215 51 -99 55 -103 87 -103 31 0 32 1 21 23 -6 12
-16 28 -22 36 -6 7 -12 20 -13 28 -1 7 -8 20 -14 28 -6 8 -19 29 -29 47 -35
67 -64 114 -91 148 -15 19 -35 49 -44 65 -9 17 -24 42 -34 57 -9 14 -30 48
-46 75 -16 26 -36 55 -45 64 -9 9 -56 61 -106 116 -90 98 -222 213 -246 213
-11 0 -81 58 -156 129 -17 17 -42 35 -55 41 -12 5 -41 21 -63 35 -22 13 -56
33 -76 44 -19 11 -41 27 -48 35 -8 9 -19 16 -27 16 -7 0 -27 13 -44 28 -17 16
-52 34 -79 42 -26 7 -53 21 -60 31 -6 11 -7 19 -2 19 6 0 13 -4 16 -10 3 -5
20 -10 36 -10 26 0 29 3 24 20 -5 15 2 28 23 48 26 24 29 34 29 87 0 35 5 61
12 63 6 2 11 12 11 22 0 11 10 29 23 41 12 12 16 19 10 15 -7 -4 -13 -2 -13 3
0 6 7 11 15 11 8 0 15 5 15 10 0 6 -19 10 -42 10 -24 0 -52 7 -62 15 -11 8
-38 15 -60 15 -49 1 -119 19 -162 43 -18 9 -51 19 -74 23 -29 5 -44 13 -47 25
-3 10 -9 16 -15 13 -5 -3 -15 0 -23 6 -8 6 -20 8 -26 4 -7 -4 -9 -3 -5 4 3 6
20 13 36 17 17 4 28 10 26 14 -3 3 11 17 29 30 70 48 110 144 76 184 -7 9 -26
19 -42 22 l-29 7 48 31 c57 39 68 76 27 95 -14 7 -32 12 -40 12 -22 0 -19 10
13 43 15 17 21 27 15 23 -7 -4 -13 -5 -13 -2 0 3 9 10 20 16 16 9 19 8 14 -7
-5 -17 -5 -17 6 0 6 9 8 22 4 29 -5 7 0 9 15 5 24 -6 53 26 44 50 -3 8 1 19
10 26 20 17 51 67 41 67 -5 0 -14 -8 -20 -17 -6 -10 -26 -26 -43 -36 -26 -15
-30 -15 -25 -3 3 9 10 14 14 11 4 -3 11 2 14 11 3 8 2 12 -4 9 -6 -3 -10 1
-10 10 0 9 -4 13 -10 10 -5 -3 -10 -2 -10 4 0 6 -16 10 -36 9 -25 -1 -39 4
-46 15 -5 10 -14 17 -21 17 -7 0 -6 -4 3 -10 9 -6 10 -10 3 -10 -6 0 -15 5
-19 11 -3 6 -14 9 -24 6 -13 -3 -17 0 -13 9 6 16 -11 18 -37 4 -16 -9 -18 -7
-14 12 11 49 10 52 -28 53 -33 2 -35 0 -20 -11 15 -12 15 -12 -6 -7 -16 4 -21
1 -19 -8 2 -8 2 -10 -1 -6 -2 4 -11 2 -20 -5 -14 -11 -14 -9 1 8 20 24 22 36
5 32 -17 -4 -108 62 -108 78 0 10 -33 25 -62 28 -4 1 -13 10 -21 20 -13 17
-21 18 -100 10 -50 -6 -83 -6 -80 -1 7 11 -18 28 -30 20 -5 -3 -3 -9 4 -14 21
-13 3 -22 -39 -21 -21 1 -53 -2 -70 -7 l-32 -10 6 42 c4 23 11 47 16 54 5 6 6
23 2 37 -3 15 -2 32 4 39 6 7 12 32 14 56 4 54 21 63 38 21 15 -36 67 -79 130
-108 l44 -20 37 21 c24 14 50 43 73 82 19 33 51 82 70 110 69 96 136 300 143
434 9 164 -22 290 -91 376 -22 27 -30 30 -75 28 -29 0 -57 -6 -64 -11 -7 -6
-28 -13 -48 -17 l-36 -7 8 49 c4 26 10 55 13 63 13 34 57 310 78 485 6 50 12
176 13 280 2 168 4 195 22 235 25 53 41 239 25 281 -6 15 -7 32 -2 40 6 8 2
25 -11 46 -24 38 -16 43 18 11 33 -30 30 -6 -7 62 -16 30 -29 61 -30 69 -1 38
-68 150 -117 196 -43 41 -51 54 -46 73 4 16 -1 33 -16 52 -11 16 -21 34 -21
39 0 21 -36 70 -69 92 -104 71 -112 79 -102 98 16 29 -3 77 -54 136 l-45 54
-55 -6 c-55 -6 -55 -6 -66 26 -13 36 -30 42 -26 9 2 -19 -3 -23 -28 -25 -16 0
-50 8 -73 19 -39 18 -42 22 -29 35 13 14 20 13 56 -8 43 -24 68 -20 35 6 -19
15 -80 45 -119 59 -30 11 -177 -4 -172 -18 2 -6 20 -10 41 -8 20 2 36 -2 36
-8 0 -5 -3 -10 -7 -11 -5 0 -27 -2 -49 -4 l-42 -3 4 45 c1 25 -2 57 -7 71 -14
35 -66 99 -94 114 -13 7 -55 30 -94 51 -57 30 -80 37 -127 37 -47 0 -62 -5
-94 -30 -31 -25 -40 -28 -49 -16 -7 8 -28 16 -49 19 -20 2 -51 9 -69 15 -26 8
-31 8 -26 -4z m291 -23 c7 -4 12 -14 10 -21 -2 -8 14 -20 38 -29 22 -9 55 -25
72 -36 33 -20 43 -45 17 -45 -18 0 -18 -5 -4 -32 19 -35 -2 -42 -117 -39 -127
3 -148 10 -163 52 -15 43 -6 49 16 10 10 -17 21 -31 25 -31 17 0 17 22 -2 57
-25 47 -25 49 5 79 37 37 78 51 103 35z m-424 -62 c48 -1 71 -8 117 -36 63
-36 95 -71 80 -86 -6 -6 -21 0 -40 15 -51 43 -111 66 -194 72 -89 7 -99 10
-90 32 4 12 14 14 37 10 17 -3 58 -7 90 -7z m326 -169 c0 -5 -4 -10 -10 -10
-5 0 -10 5 -10 10 0 6 5 10 10 10 6 0 10 -4 10 -10z m640 -119 c0 -17 -34 -22
-49 -6 -14 13 -12 15 17 15 18 0 32 -4 32 -9z m482 -308 c24 -26 44 -93 28
-93 -7 0 -80 105 -80 115 0 14 29 2 52 -22z m68 -133 c0 -5 -7 -7 -15 -4 -8 4
-12 10 -9 15 6 11 24 2 24 -11z m-2925 -270 c-10 -11 -22 -17 -27 -14 -5 3 -1
12 9 20 27 20 39 17 18 -6z m1910 -40 c6 -5 33 -10 60 -13 70 -7 183 -33 228
-52 56 -23 145 -87 199 -142 48 -49 158 -252 158 -292 0 -11 4 -22 9 -25 4 -3
11 -23 15 -44 3 -22 13 -52 21 -68 8 -16 15 -36 15 -44 0 -34 50 -208 74 -260
14 -30 26 -62 26 -71 0 -10 13 -48 29 -85 42 -101 71 -249 81 -419 5 -82 14
-167 21 -187 10 -32 9 -45 -9 -101 -14 -40 -22 -88 -22 -132 0 -67 0 -68 20
-50 11 10 26 39 34 64 l14 46 1 -41 c2 -82 20 -148 46 -171 14 -12 25 -29 25
-37 0 -8 4 -17 9 -21 20 -12 19 14 -4 76 -43 120 -40 162 11 138 18 -9 38 -34
56 -71 28 -57 58 -77 58 -38 0 46 -70 140 -104 140 -6 0 -17 4 -24 9 -12 7
-11 13 1 37 27 49 60 80 111 102 46 21 73 21 61 2 -3 -5 1 -35 9 -67 7 -32 17
-71 20 -86 4 -15 11 -25 16 -22 13 8 13 70 0 115 -5 19 -11 59 -12 88 -2 38
-7 54 -20 57 -33 11 -160 -77 -212 -147 -45 -61 -45 -27 0 67 36 76 38 78 102
108 69 32 122 38 147 17 19 -16 50 -86 71 -158 22 -76 20 -221 -4 -299 -11
-34 -38 -91 -61 -127 -22 -36 -41 -68 -41 -71 0 -4 -11 -21 -24 -38 -22 -29
-45 -97 -33 -97 8 0 87 119 98 147 5 14 12 23 16 19 9 -9 -61 -145 -96 -186
-17 -19 -35 -46 -41 -60 -6 -15 -24 -34 -41 -44 -49 -29 -87 -15 -158 58 -57
60 -61 67 -61 111 0 25 -4 55 -10 65 -6 12 -6 37 1 74 5 31 9 84 7 118 l-3 63
-21 -33 c-17 -26 -25 -62 -33 -150 -46 -469 -124 -722 -265 -865 -34 -35 -89
-77 -124 -95 l-64 -34 7 30 c11 52 -53 142 -101 142 -32 0 -44 -32 -44 -120 0
-68 1 -70 28 -76 15 -3 31 -7 35 -7 4 -1 -18 -16 -50 -33 -32 -18 -87 -47
-123 -67 -140 -76 -272 -102 -478 -95 -129 5 -247 26 -337 60 -46 17 -299 140
-305 148 -3 3 -32 25 -66 48 -113 76 -247 226 -269 302 -4 14 -20 59 -35 100
-16 41 -38 111 -50 155 -12 44 -24 87 -27 95 -4 8 -7 17 -7 20 -1 3 -4 10 -8
16 -4 6 -27 64 -52 130 -24 65 -47 127 -51 137 -4 9 -13 17 -21 17 -21 0 -17
-47 11 -136 29 -91 30 -104 10 -104 -13 0 -35 -55 -35 -91 0 -25 -48 -68 -89
-79 -98 -27 -157 -4 -217 85 -22 32 -51 72 -65 89 -32 38 -43 67 -29 76 6 4
-1 35 -20 87 -42 116 -74 284 -67 358 6 78 37 147 71 163 36 16 57 15 117 -4
40 -13 58 -27 88 -68 21 -28 51 -62 66 -76 15 -14 46 -52 67 -85 l40 -60 -6
53 c-3 29 -10 68 -15 85 -5 18 -15 50 -21 72 -18 62 -25 381 -10 504 13 109
31 179 94 360 31 87 38 124 47 240 15 213 46 304 132 384 72 68 129 94 277
126 59 13 552 171 595 191 11 5 47 12 80 15 33 4 95 15 138 25 57 14 83 17 95
9 12 -8 26 -6 51 4 35 15 145 13 166 -3z m-2003 -332 c-7 -7 -12 -8 -12 -2 0
14 12 26 19 19 2 -3 -1 -11 -7 -17z m0 -58 c-12 -11 -17 -15 -12 -8 6 7 10 21
10 32 0 16 3 17 12 8 10 -10 7 -17 -10 -32z m-105 -1782 c-3 -8 -6 -5 -6 6 -1
11 2 17 5 13 3 -3 4 -12 1 -19z m8 -37 c3 -5 1 -12 -5 -16 -5 -3 -10 1 -10 9
0 18 6 21 15 7z m600 -317 c20 -48 19 -52 -5 -21 -18 23 -27 57 -15 57 3 0 12
-16 20 -36z m2651 -259 c-1 -8 -5 -17 -8 -21 -5 -4 -4 16 1 34 3 9 9 -1 7 -13z
m44 -10 c0 -12 -19 -12 -23 0 -4 9 -1 12 9 8 7 -3 14 -7 14 -8z m7 -65 c1 -11
-2 -22 -6 -24 -6 -4 -7 26 -2 42 3 8 7 -1 8 -18z m226 -63 c3 -8 -1 -14 -8
-14 -7 0 -11 6 -8 14 3 7 6 13 8 13 2 0 5 -6 8 -13z m-333 -132 c-7 -8 -9 -15
-4 -15 4 0 -12 -20 -37 -45 -41 -43 -116 -92 -125 -82 -3 2 10 12 28 20 19 10
26 17 16 17 -9 0 -20 -4 -23 -10 -3 -5 -14 -10 -23 -9 -9 0 -12 3 -6 5 7 3 10
13 7 23 -8 30 16 35 50 11 18 -13 26 -17 20 -10 -10 11 -9 18 5 34 14 16 15
19 1 14 -9 -4 -16 -1 -16 7 0 6 10 12 21 12 26 0 72 18 81 32 3 6 9 11 12 11
3 0 0 -7 -7 -15z m-169 -18 c-10 -9 -11 -8 -5 6 3 10 9 15 12 12 3 -3 0 -11
-7 -18z m223 5 c-6 -4 -10 -15 -8 -25 1 -9 -1 -15 -6 -12 -14 9 -32 -23 -22
-41 8 -15 9 -15 15 0 5 11 3 15 -5 10 -7 -5 -8 -3 -4 5 13 20 47 -18 44 -48
-2 -19 4 -29 25 -39 23 -11 26 -16 16 -34 -8 -14 -18 -19 -35 -15 -15 2 -24 0
-24 -8 0 -7 -3 -33 -6 -59 -5 -33 -3 -46 5 -46 7 0 19 -6 26 -14 12 -11 10
-17 -13 -37 -15 -13 -33 -24 -41 -24 -8 0 -16 -6 -19 -14 -2 -8 -1 -11 4 -9 5
3 18 2 29 -3 13 -6 6 -7 -22 -3 -31 3 -43 1 -43 -8 0 -9 -3 -9 -12 0 -18 18
-48 15 -49 -5 -8 -141 -13 -151 -62 -117 -21 14 -35 29 -32 35 4 5 1 9 -4 9
-6 0 -11 17 -12 38 0 27 -2 32 -8 18 -5 -12 -10 -16 -14 -9 -4 6 -4 18 -1 27
3 9 1 23 -6 31 -6 8 -9 23 -5 35 5 15 2 20 -12 20 -15 0 -15 2 -3 10 12 8 12
11 -3 28 -10 11 -17 35 -17 57 0 32 2 36 15 25 12 -10 15 -10 15 1 0 8 7 27
15 42 8 15 10 25 5 22 -15 -9 -54 -15 -46 -7 4 4 12 7 17 7 5 0 8 5 7 10 -2 6
-9 9 -15 9 -7 -1 -10 2 -7 7 7 12 38 6 58 -10 21 -18 70 -8 117 24 28 18 39
21 50 12 11 -10 11 -9 1 4 -10 13 -6 21 18 44 17 16 30 25 30 21 0 -5 7 -3 15
4 8 6 14 15 13 18 -1 16 3 22 15 22 8 0 9 -3 1 -8z m-253 -59 c-12 -20 -14
-14 -5 12 4 9 9 14 11 11 3 -2 0 -13 -6 -23z m724 -128 c0 -22 -62 -68 -112
-83 -18 -6 -33 -8 -33 -6 0 2 16 22 36 44 41 45 39 67 -2 29 -14 -13 -29 -24
-32 -23 -12 2 -42 -20 -42 -30 0 -5 12 1 26 15 15 13 25 20 23 14 -9 -23 -86
-141 -105 -161 -12 -13 -20 -25 -18 -27 2 -2 -3 -4 -11 -4 -13 0 -13 3 1 18 9
10 14 25 10 34 -4 13 -1 15 14 10 16 -5 19 -3 13 11 -4 12 -3 15 5 10 7 -4 12
-1 12 9 0 9 -4 14 -8 11 -4 -2 -9 4 -9 15 -2 17 1 18 13 9 11 -10 14 -10 14
-1 0 7 4 10 9 6 5 -3 13 0 17 6 4 8 3 9 -4 5 -18 -11 -15 29 3 44 8 7 12 17 8
23 -3 5 -1 7 5 3 6 -3 13 -2 17 4 4 6 11 8 16 5 5 -4 9 -2 9 3 0 16 44 31 85
29 32 -2 40 -6 40 -22z m-205 -87 c0 -6 -6 -5 -15 2 -8 7 -15 14 -15 16 0 2 7
1 15 -2 8 -4 15 -11 15 -16z m174 -37 c21 -18 20 -69 -2 -102 -37 -56 -110
-104 -145 -94 -17 5 -19 4 -7 -4 9 -6 10 -11 3 -11 -6 0 -20 -3 -30 -6 -15 -5
-15 -4 -3 5 13 9 13 11 0 11 -9 0 -22 -6 -30 -12 -12 -11 -12 -10 -3 2 7 9 11
30 11 48 -1 46 22 66 77 67 61 0 57 13 -5 17 l-49 3 29 47 29 47 54 -2 c30 -2
62 -9 71 -16z m-259 -115 c12 -12 12 -15 -2 -20 -9 -4 -18 -4 -21 -1 -3 3 0 5
8 5 10 0 10 3 0 15 -16 19 -3 20 15 1z m0 -136 c3 -6 -1 -7 -9 -4 -18 7 -21
14 -7 14 6 0 13 -4 16 -10z m-295 -120 c0 -5 -2 -10 -4 -10 -3 0 -8 5 -11 10
-3 6 -1 10 4 10 6 0 11 -4 11 -10z m870 -670 c0 -5 -4 -10 -10 -10 -5 0 -10 5
-10 10 0 6 5 10 10 10 6 0 10 -4 10 -10z m-2442 -265 c6 -38 9 -71 7 -73 -2
-2 -12 -1 -23 2 -12 4 -19 16 -20 34 0 15 -5 38 -11 52 -9 24 -10 24 -10 3 -1
-40 -77 -74 -117 -52 -47 24 -20 116 40 140 17 7 39 19 48 27 9 8 22 11 27 7
6 -3 11 2 12 12 0 33 36 -81 47 -152z m-483 -204 c6 -10 -21 -41 -35 -41 -5 0
-12 -9 -15 -20 -7 -21 -52 -57 -60 -48 -3 3 3 24 14 48 24 53 79 88 96 61z m3
-244 c3 -23 0 -27 -22 -27 -30 0 -29 0 -16 35 12 33 34 28 38 -8z"/>
<path d="M4090 4450 c-159 -38 -268 -79 -304 -114 -40 -37 -43 -53 -20 -101
25 -54 56 -60 150 -32 76 24 130 38 275 72 107 25 232 19 357 -16 23 -6 46 -9
50 -5 11 11 -50 115 -86 147 -67 59 -100 69 -229 68 -77 0 -144 -7 -193 -19z"/>
<path d="M2766 4390 c-118 -19 -276 -163 -264 -242 5 -33 21 -31 77 7 71 49
117 64 226 71 68 5 110 3 161 -9 89 -21 212 -45 293 -58 75 -13 81 -8 81 63 0
56 -18 74 -107 106 -156 57 -342 81 -467 62z"/>
<path d="M4140 4181 c-103 -17 -214 -78 -250 -136 -40 -65 -15 -88 36 -34 40
44 104 89 123 89 10 -1 -1 -16 -30 -43 -47 -42 -109 -130 -109 -153 0 -34 26
-40 192 -43 186 -3 247 11 320 70 35 28 42 30 70 20 45 -16 62 3 28 31 -14 11
-37 31 -52 44 -15 13 -30 24 -33 24 -3 0 -16 10 -28 21 -22 21 -21 21 19 -1
23 -12 54 -33 70 -46 18 -16 31 -21 38 -14 25 25 -61 101 -169 150 -55 24
-151 33 -225 21z m-60 -153 c0 -29 26 -68 68 -103 17 -15 32 -30 32 -34 0 -10
-101 -3 -166 10 l-51 11 12 34 c10 30 78 103 98 104 4 0 7 -10 7 -22z m111 6
c9 -11 10 -20 2 -32 -13 -22 -43 -22 -56 -1 -24 38 25 68 54 33z m227 -36 c2
-9 -15 -29 -39 -47 -48 -35 -64 -39 -54 -13 4 9 9 33 12 52 9 63 10 64 45 43
18 -11 34 -26 36 -35z"/>
<path d="M2800 4107 c-52 -22 -89 -45 -121 -78 -79 -81 -74 -128 5 -54 26 25
52 45 59 45 7 0 -14 -25 -46 -56 -60 -58 -67 -73 -42 -94 13 -10 19 -9 36 6
15 13 22 15 28 6 4 -7 36 -24 72 -38 82 -33 216 -37 300 -8 30 10 82 18 117
19 60 0 62 1 62 26 0 18 -22 48 -79 107 -44 45 -78 82 -76 82 9 0 61 -25 75
-35 40 -31 89 -55 94 -46 8 12 -63 80 -112 107 -55 31 -121 44 -214 43 -69 -1
-96 -6 -158 -32z m54 -139 c5 -33 17 -51 54 -85 48 -44 47 -50 -4 -34 -16 5
-55 15 -86 21 -32 7 -65 21 -74 31 -14 16 -14 20 -1 39 17 25 76 69 93 70 6 0
14 -19 18 -42z m112 16 c4 -17 1 -31 -9 -41 -13 -14 -17 -13 -35 5 -27 27 -19
62 14 62 17 0 25 -7 30 -26z m223 -49 c22 -24 41 -47 41 -50 0 -2 -10 -4 -22
-3 -13 0 -50 -2 -83 -7 l-60 -7 27 28 c15 16 30 41 33 57 4 15 11 27 15 27 4
0 26 -20 49 -45z"/>
<path d="M1965 3580 c-9 -15 14 -40 36 -40 22 0 24 -8 5 -29 -22 -26 -35 -76
-42 -166 -5 -61 -4 -85 5 -85 6 0 11 -6 11 -14 0 -7 6 -18 13 -25 26 -21 33 6
23 85 -7 56 -6 89 3 122 12 45 35 82 52 82 10 0 159 -152 159 -162 0 -4 -6 -8
-14 -8 -20 0 -86 -64 -86 -84 0 -25 19 -19 47 14 42 51 57 37 54 -49 -2 -64 0
-76 20 -97 22 -23 22 -24 2 -24 -11 0 -32 -9 -46 -20 -14 -11 -30 -20 -37 -20
-7 0 -23 9 -37 20 -30 24 -43 25 -43 6 0 -27 59 -66 99 -66 21 0 53 -7 71 -17
19 -9 46 -16 62 -16 17 0 28 -6 28 -14 0 -19 18 -16 30 6 14 28 13 41 -5 41
-12 0 -14 4 -5 20 10 19 -4 41 -68 109 -8 9 -12 39 -11 92 2 73 -1 83 -32 135
-19 30 -62 83 -95 118 -52 53 -71 65 -123 79 -72 20 -68 20 -76 7z m330 -533
c10 -8 14 -17 8 -20 -14 -9 -66 7 -71 21 -5 16 40 15 63 -1z"/>
<path d="M3940 3455 c0 -2 18 -23 40 -45 34 -35 40 -47 40 -83 0 -51 -21 -84
-66 -103 -57 -24 -38 -54 21 -34 72 24 112 108 80 171 -23 46 -75 99 -97 99
-10 0 -18 -2 -18 -5z"/>
<path d="M3312 3425 c-38 -32 -72 -104 -72 -152 0 -73 63 -136 117 -117 38 13
41 34 5 34 -43 0 -72 40 -72 97 0 48 10 72 46 116 42 50 26 64 -24 22z"/>
<path d="M3433 3320 c-40 -24 -66 -62 -57 -84 8 -21 7 -21 56 12 33 21 52 27
90 25 55 -3 60 7 22 42 -32 30 -68 32 -111 5z"/>
<path d="M3775 3320 c-27 -10 -48 -37 -41 -49 4 -6 27 -8 54 -4 34 4 58 1 79
-10 33 -17 43 -14 43 15 0 39 -84 69 -135 48z"/>
<path d="M4926 3227 c-25 -24 -46 -49 -46 -57 0 -19 38 -77 56 -84 10 -4 18 1
21 13 5 21 63 33 117 24 28 -4 35 -1 59 35 31 44 41 97 18 97 -8 0 -25 -20
-38 -45 -13 -25 -28 -45 -33 -44 -6 1 -35 2 -65 3 -61 1 -65 8 -34 52 19 27
19 49 0 49 -5 0 -29 -19 -55 -43z"/>
<path d="M3510 2894 c-53 -22 -89 -40 -115 -58 -16 -12 -41 -27 -55 -34 -29
-14 -56 -31 -82 -52 -10 -8 -35 -17 -56 -20 -28 -4 -38 -10 -40 -26 -5 -38 18
-46 99 -33 41 6 78 15 83 20 6 5 21 9 35 9 15 1 51 9 81 20 40 13 59 16 73 8
14 -7 22 -7 27 2 5 8 97 12 322 14 174 2 321 6 327 10 6 4 11 14 11 21 0 15
-10 18 -85 30 -22 4 -58 15 -81 25 -126 58 -144 62 -269 60 -66 -2 -151 0
-190 4 -38 3 -77 3 -85 0z"/>
<path d="M3340 2660 c-23 -7 -23 -8 -3 -9 12 -1 25 4 28 9 3 6 5 10 3 9 -2 -1
-14 -5 -28 -9z"/>
<path d="M5041 2316 c-7 -8 -22 -13 -33 -11 -11 3 -18 2 -14 -2 3 -4 -1 -15
-11 -25 -14 -16 -14 -18 0 -18 9 0 19 9 22 20 4 11 10 18 14 15 5 -2 16 4 26
15 10 11 16 20 13 20 -3 0 -11 -6 -17 -14z"/>
<path d="M5055 2269 c-4 -6 -5 -12 -2 -15 2 -3 7 2 10 11 7 17 1 20 -8 4z"/>
<path d="M4995 2210 c-4 -6 1 -7 12 -3 15 6 16 4 5 -9 -9 -11 -10 -18 -2 -23
18 -11 31 5 20 26 -12 21 -25 25 -35 9z"/>
<path d="M4940 1820 c0 -5 5 -10 10 -10 6 0 10 5 10 10 0 6 -4 10 -10 10 -5 0
-10 -4 -10 -10z"/>
<path d="M4914 1811 c7 -11 46 -35 46 -28 0 3 -12 12 -26 22 -15 9 -23 12 -20
6z"/>
<path d="M5375 1860 c-3 -5 -1 -10 4 -10 6 0 11 5 11 10 0 6 -2 10 -4 10 -3 0
-8 -4 -11 -10z"/>
<path d="M3525 6494 c9 -9 19 -13 23 -10 3 4 0 11 -8 16 -24 15 -33 11 -15 -6z"/>
<path d="M1335 2930 c-3 -5 1 -10 9 -10 9 0 16 5 16 10 0 6 -4 10 -9 10 -6 0
-13 -4 -16 -10z"/>
<path d="M1370 2911 c0 -12 29 -35 36 -28 11 10 -5 37 -21 37 -8 0 -15 -4 -15
-9z"/>
<path d="M1195 2890 c-3 -5 -1 -10 4 -10 6 0 11 5 11 10 0 6 -2 10 -4 10 -3 0
-8 -4 -11 -10z"/>
<path d="M1245 2870 c27 -12 35 -12 35 0 0 6 -12 10 -27 9 -25 0 -26 -1 -8 -9z"/>
<path d="M4852 2745 c0 -16 2 -22 5 -12 2 9 2 23 0 30 -3 6 -5 -1 -5 -18z"/>
<path d="M6334 2663 c5 -7 12 -28 16 -46 7 -29 8 -30 9 -6 1 15 -7 35 -16 46
-10 10 -14 13 -9 6z"/>
<path d="M5905 2609 c-53 -28 -102 -75 -110 -106 -8 -34 3 -63 23 -63 15 1 15
2 -1 11 -56 33 67 169 152 169 34 0 26 -28 -44 -172 -73 -147 -81 -191 -35
-196 31 -4 105 44 156 100 l37 42 -6 -41 c-5 -26 -2 -46 7 -58 12 -17 17 -17
45 -5 40 16 150 134 181 194 14 25 33 47 45 50 32 9 115 7 115 -3 0 -11 -128
-131 -140 -131 -14 0 -12 12 5 34 8 11 15 25 15 30 0 6 -9 -2 -20 -19 -38 -58
-15 -75 40 -29 17 15 33 24 36 21 3 -3 -4 -23 -15 -46 -12 -22 -21 -48 -20
-58 0 -10 5 -4 10 12 4 17 30 66 56 110 34 56 55 81 70 83 21 3 21 0 -12 -54
-19 -32 -35 -67 -35 -78 0 -18 6 -15 36 17 28 29 39 35 45 25 7 -10 9 -9 9 5
0 22 -11 22 -44 -4 -14 -11 -26 -16 -26 -11 0 14 109 114 118 108 4 -2 8 3 8
12 1 9 4 25 9 35 12 28 -18 21 -50 -13 -29 -30 -62 -41 -52 -17 3 6 8 21 12
32 l7 20 -17 -20 c-9 -11 -19 -25 -23 -31 -4 -7 -39 -13 -78 -16 -67 -3 -71
-2 -67 17 3 11 -7 -4 -21 -33 -45 -93 -134 -194 -204 -231 -19 -10 -23 -9 -28
4 -13 34 4 104 40 161 35 58 46 94 26 94 -12 0 -60 -93 -60 -116 0 -24 -151
-170 -185 -178 -33 -9 -47 7 -38 44 3 13 33 79 65 147 34 69 58 132 56 145 -4
31 -42 34 -93 7z m695 -28 c-12 -23 -29 -35 -37 -27 -7 7 26 46 39 46 5 0 4
-9 -2 -19z m-455 -81 c-23 -44 -30 -31 -8 15 10 20 19 32 21 26 2 -5 -4 -24
-13 -41z m415 37 c0 -2 -12 -14 -27 -28 -24 -22 -24 -13 0 19 8 11 27 17 27 9z"/>
<path d="M6633 2553 c9 -2 23 -2 30 0 6 3 -1 5 -18 5 -16 0 -22 -2 -12 -5z"/>
<path d="M5550 2466 c0 -2 7 -7 16 -10 8 -3 12 -2 9 4 -6 10 -25 14 -25 6z"/>
<path d="M6572 2410 c-59 -67 -82 -78 -50 -25 11 20 19 38 16 40 -2 2 -14 -16
-27 -41 -13 -24 -21 -47 -17 -51 7 -7 111 91 127 120 16 29 6 20 -49 -43z"/>
<path d="M2460 2281 c-8 -5 -32 -11 -52 -15 -21 -4 -43 -12 -50 -19 -7 -7 -21
-16 -31 -20 -11 -4 -21 -16 -24 -27 -3 -11 -11 -20 -18 -20 -18 0 -58 -57 -50
-71 4 -6 -2 -13 -14 -16 -16 -4 -19 -9 -11 -23 14 -27 13 -28 -22 -33 -33 -4
-33 -4 4 -5 21 -1 65 -17 100 -36 35 -19 74 -37 87 -41 22 -7 23 -5 19 19 -4
17 -1 25 6 23 6 -2 12 -13 14 -25 4 -29 42 -31 42 -2 0 10 6 23 14 27 7 4 17
26 23 48 8 34 12 40 32 37 15 -3 21 0 16 8 -4 6 -4 22 -1 36 5 19 11 24 26 19
11 -3 28 -2 37 4 10 6 12 11 6 11 -8 0 -13 15 -13 41 0 38 -2 41 -24 37 -19
-4 -22 -1 -18 14 3 13 -1 18 -17 18 -12 0 -24 -7 -27 -15 -9 -24 -32 -18 -36
9 -2 19 -7 23 -18 17z"/>
<path d="M5718 2113 c-43 -45 -113 -169 -100 -177 5 -3 24 10 42 30 17 20 34
33 37 30 3 -3 -7 -30 -22 -61 -16 -30 -25 -58 -21 -62 3 -4 28 15 55 41 33 32
50 44 54 34 3 -11 8 -11 26 0 12 7 21 8 21 2 0 -16 25 -11 53 10 30 24 37 25
37 5 0 -23 21 -18 52 12 l29 27 6 -23 c4 -18 11 -22 29 -18 13 2 24 0 24 -6 0
-5 -33 -44 -74 -86 -80 -82 -96 -114 -59 -119 18 -3 31 11 72 75 50 80 121
158 131 145 3 -5 24 -9 47 -10 35 -1 50 5 84 34 47 39 34 47 -15 9 -40 -31
-50 -32 -35 -4 9 17 8 23 -2 30 -24 14 -48 4 -95 -42 l-45 -44 16 39 c20 48
14 56 -15 17 -12 -17 -28 -31 -36 -31 -19 0 -18 13 6 43 28 36 25 45 -6 16
-17 -15 -28 -20 -31 -12 -2 6 -19 -4 -38 -25 -36 -38 -46 -28 -20 18 25 44 16
41 -33 -10 -56 -58 -81 -67 -57 -20 9 17 13 30 10 30 -4 0 -18 -13 -32 -30
-13 -16 -29 -30 -34 -30 -17 0 -9 21 17 45 20 19 22 23 6 18 -10 -2 -43 -31
-72 -64 -28 -33 -54 -58 -57 -56 -2 3 5 23 16 46 37 71 21 94 -31 44 -58 -55
-25 -9 47 67 41 43 75 84 75 89 0 22 -27 10 -62 -26z m34 0 c-25 -35 -72 -79
-72 -68 0 13 70 95 81 95 6 0 1 -12 -9 -27z m404 -119 c-15 -14 -31 -23 -34
-20 -9 9 30 46 47 46 11 -1 8 -8 -13 -26z m-182 -156 c-45 -73 -74 -98 -74
-63 0 15 80 105 93 105 4 0 -5 -19 -19 -42z"/>
<path d="M538 2052 c-15 -9 -34 -34 -42 -55 -8 -21 -19 -36 -25 -33 -12 8 -17
-33 -12 -91 2 -25 7 -40 13 -37 6 4 9 -45 7 -137 -3 -133 -2 -144 15 -144 10
0 23 -8 30 -18 15 -20 32 -22 40 -4 5 10 7 10 12 0 3 -7 19 -13 35 -13 16 0
29 -4 29 -9 0 -5 8 -12 18 -15 38 -15 62 -31 62 -43 0 -16 17 -17 22 -1 3 7
11 9 24 3 17 -7 17 -8 2 -12 -26 -6 -22 -22 7 -29 14 -3 25 -10 25 -15 0 -5
21 -9 48 -9 26 0 65 -5 86 -11 24 -7 66 -8 104 -4 62 7 71 11 110 59 14 18 16
112 3 121 -5 3 -15 22 -21 43 -21 67 -59 136 -90 166 -16 16 -32 38 -36 49 -4
11 -20 32 -37 46 -18 14 -38 33 -47 42 -64 70 -95 99 -106 99 -7 0 -41 15 -77
33 -74 39 -153 47 -199 19z"/>
<path d="M1511 1226 c-38 -10 -46 -17 -58 -51 -10 -30 -11 -46 -2 -73 7 -22 9
-68 5 -126 -11 -160 -10 -184 7 -210 10 -14 17 -35 17 -47 0 -22 53 -79 75
-79 7 0 13 -10 12 -22 0 -13 3 -30 7 -40 5 -11 2 -17 -11 -20 -16 -3 -15 -7
10 -31 15 -15 27 -31 27 -35 0 -4 14 -13 30 -19 17 -6 30 -18 30 -27 0 -9 8
-16 20 -16 11 0 23 -7 26 -15 7 -18 74 -21 74 -4 0 6 -7 9 -15 5 -19 -7 -46
20 -38 40 3 8 -1 20 -10 27 -8 7 -18 35 -21 62 -17 137 -25 183 -38 216 -17
45 -12 119 8 119 8 0 14 6 14 14 0 8 6 16 14 19 7 3 16 16 19 29 3 13 12 41
21 63 8 22 15 58 15 80 1 33 -6 47 -39 83 -21 23 -47 42 -58 42 -10 0 -22 4
-27 9 -18 16 -69 19 -114 7z"/>
<path d="M5367 1102 l-28 -29 21 -26 c24 -30 78 -46 91 -26 15 24 10 68 -11
89 -27 27 -41 25 -73 -8z"/>
<path d="M5535 1077 c-43 -32 16 -107 69 -88 33 13 34 44 1 76 -27 28 -43 31
-70 12z"/>
<path d="M5192 1043 c-30 -37 -28 -47 14 -79 40 -31 58 -27 84 20 14 26 14 28
-20 56 -43 36 -51 37 -78 3z"/>
<path d="M5320 940 c-29 -31 -29 -33 -14 -61 24 -47 53 -55 121 -33 44 14 59
24 61 40 4 28 -23 54 -54 54 -14 0 -38 7 -55 16 -29 15 -31 14 -59 -16z"/>
<path d="M5593 955 c-39 -17 -39 -18 -12 -57 17 -23 27 -28 52 -26 42 4 56 30
37 66 -19 32 -35 36 -77 17z"/>
<path d="M5032 897 c-31 -33 -27 -50 16 -73 45 -24 58 -22 77 16 20 38 20 37
-17 60 -42 25 -50 25 -76 -3z"/>
<path d="M6038 873 c7 -3 16 -2 19 1 4 3 -2 6 -13 5 -11 0 -14 -3 -6 -6z"/>
<path d="M5640 851 c-33 -9 -36 -30 -11 -81 11 -23 17 -48 14 -56 -3 -8 0 -28
7 -44 13 -32 44 -39 81 -20 42 23 11 108 -35 94 -20 -6 -20 -6 2 16 26 25 24
65 -5 88 -18 13 -17 13 -53 3z"/>
<path d="M5143 821 l-22 -28 22 -20 c54 -47 56 -48 82 -23 33 31 31 54 -4 79
-38 27 -51 26 -78 -8z"/>
<path d="M5453 833 c-55 -27 -41 -93 18 -93 15 0 34 3 43 6 29 11 14 105 -17
103 -7 0 -27 -8 -44 -16z"/>
<path d="M6097 799 c4 -13 8 -18 11 -10 2 7 -1 18 -6 23 -8 8 -9 4 -5 -13z"/>
<path d="M4960 774 c0 -3 10 -14 22 -23 22 -18 18 -41 -8 -41 -8 0 -14 -4 -14
-9 0 -15 50 -51 70 -51 21 0 53 44 48 68 -5 28 -118 81 -118 56z"/>
<path d="M5248 724 c-16 -8 -28 -18 -28 -22 0 -4 20 -28 43 -53 23 -26 47 -54
52 -64 9 -14 14 -15 38 -4 15 7 27 16 27 21 0 16 -22 53 -37 61 -12 7 -12 12
4 29 17 19 17 20 -2 34 -24 18 -62 17 -97 -2z"/>
<path d="M5485 721 c-20 -11 -31 -27 -33 -45 -5 -41 11 -53 60 -47 41 6 43 7
46 44 3 39 -11 68 -32 66 -6 0 -24 -8 -41 -18z"/>
<path d="M5091 659 l-23 -40 23 -25 c27 -29 56 -30 87 -4 16 13 22 26 17 39
-6 20 -60 71 -74 71 -4 0 -18 -18 -30 -41z"/>
<path d="M6180 670 c0 -5 5 -10 11 -10 5 0 7 5 4 10 -3 6 -8 10 -11 10 -2 0
-4 -4 -4 -10z"/>
<path d="M5713 627 c-50 -19 -55 -27 -40 -78 7 -26 12 -85 10 -144 -2 -83 1
-102 14 -112 15 -12 15 -13 1 -13 -18 0 -38 -48 -38 -90 0 -22 6 -29 28 -35
l27 -7 -27 -10 c-35 -12 -41 -51 -17 -110 8 -19 19 -28 35 -28 27 0 33 14 38
94 2 32 7 60 10 63 3 4 6 25 6 47 0 23 7 61 16 86 13 37 15 71 10 184 -5 125
-14 168 -35 165 -3 0 -20 -6 -38 -12z"/>
<path d="M5900 631 c-31 -8 -33 -23 -22 -134 4 -48 5 -118 1 -155 -7 -69 -4
-87 11 -63 5 9 14 11 26 6 16 -7 13 -10 -18 -23 -41 -16 -42 -19 -52 -138 -5
-57 -4 -62 18 -72 33 -15 46 -2 62 59 7 30 25 87 38 127 22 63 25 87 22 171
-2 55 -6 104 -10 110 -5 7 -15 7 -32 1 -34 -13 -46 -12 -41 3 4 12 8 13 47 16
25 1 37 44 21 77 -11 24 -26 28 -71 15z m19 -455 c9 -11 6 -12 -14 -8 -14 2
-25 8 -25 13 0 14 26 11 39 -5z"/>
<path d="M4851 606 c-28 -29 -17 -59 26 -73 37 -13 50 -7 68 27 20 38 20 37
-15 55 -40 20 -53 19 -79 -9z"/>
<path d="M5492 599 c-19 -7 -23 -15 -20 -41 3 -32 5 -33 50 -36 40 -3 47 0 53
18 4 12 4 32 1 46 -7 26 -39 31 -84 13z"/>
<path d="M5192 540 c-30 -28 -28 -39 13 -92 29 -37 35 -51 29 -73 -5 -19 -10
-23 -17 -16 -19 19 -53 12 -82 -19 -28 -29 -28 -30 -9 -51 36 -40 53 -43 83
-15 15 14 33 26 40 26 6 0 26 13 43 29 l32 29 -38 38 c-36 36 -38 40 -27 69
15 43 14 59 -7 78 -24 22 -34 21 -60 -3z"/>
<path d="M5344 550 c-34 -13 -36 -25 -9 -64 14 -20 25 -48 25 -61 0 -54 29
-74 50 -34 13 23 -2 49 -26 49 -18 0 -18 14 0 29 19 16 25 42 15 69 -9 23 -21
26 -55 12z"/>
<path d="M4985 524 c-29 -31 -30 -42 -9 -72 23 -33 41 -27 59 23 14 36 15 48
5 60 -17 21 -27 19 -55 -11z"/>
<path d="M5066 492 c-16 -15 -36 -76 -31 -91 3 -9 14 -22 25 -28 16 -11 26
-10 54 4 19 9 37 22 40 28 8 21 -74 102 -88 87z"/>
<path d="M16 461 c-14 -15 -16 -50 -16 -239 l0 -222 451 0 c297 0 448 3 444
10 -3 5 -21 10 -38 10 -18 0 -41 6 -52 14 -11 7 -35 17 -52 21 -18 3 -33 10
-33 13 0 11 -58 34 -69 28 -5 -4 -11 -2 -13 2 -4 12 -78 23 -78 12 0 -13 -30
-20 -56 -14 -13 3 -24 12 -24 19 0 8 8 11 20 8 22 -6 29 20 9 32 -6 4 -8 14
-5 22 4 9 -4 18 -24 24 -20 7 -33 22 -42 45 -6 19 -17 34 -24 34 -6 0 -23 9
-37 20 -14 11 -40 20 -60 20 -18 0 -54 11 -78 25 -24 13 -54 29 -67 35 -12 5
-24 15 -26 22 -19 71 -19 71 -67 74 -35 2 -51 -2 -63 -15z"/>
<path d="M5484 455 c-9 -35 11 -55 56 -55 40 0 54 19 43 60 -4 16 -14 20 -49
20 -38 0 -44 -3 -50 -25z"/>
<path d="M4845 426 c-20 -30 -16 -75 7 -90 13 -8 23 -5 43 14 29 28 32 51 8
72 -34 28 -42 29 -58 4z"/>
<path d="M1755 380 c3 -5 8 -10 11 -10 2 0 4 5 4 10 0 6 -5 10 -11 10 -5 0 -7
-4 -4 -10z"/>
<path d="M5496 339 c-22 -18 -24 -23 -14 -42 15 -30 29 -37 58 -30 35 8 50 22
50 47 0 48 -49 61 -94 25z"/>
<path d="M4941 324 c-28 -36 -24 -66 12 -78 22 -8 30 -7 37 4 15 23 20 6 10
-30 -11 -38 -6 -50 19 -50 22 0 64 56 57 76 -3 8 -16 19 -28 25 -13 6 -30 25
-38 42 -19 41 -42 45 -69 11z"/>
<path d="M6064 336 c-3 -8 -4 -25 -2 -38 3 -20 10 -23 49 -26 44 -3 47 -1 57
26 14 39 0 52 -55 52 -29 0 -46 -5 -49 -14z"/>
<path d="M6256 288 c8 -49 19 -67 51 -79 21 -8 50 -56 40 -66 -3 -2 -21 6 -41
18 -44 26 -62 20 -71 -22 -7 -29 -3 -36 48 -86 l56 -54 20 66 c13 42 21 95 21
140 0 86 -6 110 -25 95 -10 -8 -22 -5 -47 10 -51 31 -59 27 -52 -22z m94 -183
c0 -18 -34 -53 -46 -48 -19 7 -18 23 4 39 17 14 42 19 42 9z"/>
<path d="M4736 274 c-3 -9 -6 -33 -6 -55 0 -47 16 -50 49 -8 21 27 22 33 11
55 -15 27 -45 32 -54 8z"/>
<path d="M5342 279 c-54 -10 -62 -16 -62 -40 0 -27 26 -75 44 -82 17 -7 26 3
55 60 21 43 27 74 14 72 -5 -1 -27 -5 -51 -10z"/>
<path d="M5515 211 c-37 -8 -43 -33 -15 -61 22 -22 52 -20 79 6 12 11 12 18 3
39 -12 26 -17 27 -67 16z"/>
<path d="M6040 195 c0 -19 10 -29 40 -45 l39 -20 11 21 c7 11 9 32 6 45 -6 21
-12 24 -51 24 -41 0 -45 -2 -45 -25z"/>
<path d="M4807 182 c-15 -15 -27 -33 -27 -38 0 -17 68 -77 82 -72 7 3 19 27
27 53 14 46 13 49 -9 67 -30 24 -42 23 -73 -10z"/>
<path d="M5379 183 c-1 -4 -1 -12 0 -17 1 -4 -7 -24 -19 -43 -24 -41 -25 -56
-5 -73 10 -8 15 -9 15 -2 0 6 11 21 24 34 21 20 23 29 18 62 -6 34 -30 63 -33
39z"/>
<path d="M5074 145 c-21 -32 -13 -52 39 -103 l44 -43 18 40 c10 22 29 48 42
56 20 13 22 19 12 36 -7 14 -17 19 -31 15 -12 -2 -34 2 -49 10 -39 20 -56 18
-75 -11z"/>
<path d="M4931 107 c-9 -12 -41 -91 -41 -103 0 -2 44 -4 97 -4 53 0 93 3 89 7
-4 4 -25 6 -48 4 l-41 -3 7 36 c5 28 3 39 -14 56 -23 23 -33 25 -49 7z"/>
<path d="M6001 64 c-12 -19 -21 -43 -21 -52 1 -16 1 -16 11 1 5 9 19 17 30 17
24 0 99 37 99 49 0 13 -26 21 -65 21 -27 0 -37 -6 -54 -36z"/>
<path d="M5508 79 c-23 -13 -22 -28 1 -56 12 -15 30 -23 50 -23 27 0 31 4 31
26 0 56 -37 80 -82 53z"/>
<path d="M5229 73 c-1 -5 0 -18 1 -30 1 -13 -3 -24 -9 -24 -26 -3 -30 -4 -37
-12 -4 -4 31 -7 77 -6 46 0 79 3 72 5 -7 3 -22 21 -33 40 -15 23 -29 34 -46
34 -13 0 -24 -3 -25 -7z"/>
<path d="M5932 55 c-16 -35 -15 -55 3 -55 8 0 15 8 15 18 0 9 3 27 6 40 9 30
-10 28 -24 -3z"/>
</g>
</svg>
